<svg data-name="Layer 1" xmlns="http://www.w3.org/2000/svg" viewBox="0 0 24 24"><path fill="none" d="M0 0h24v24H0z"/><path d="M19.468 16.544a9.201 9.201 0 0 1-4.801 2.11 5.827 5.827 0 0 1-4.406-1.166 4.475 4.475 0 0 1-1.328-3.858 16.9 16.9 0 0 0 6.083-.63c4.429-1.165 7.786-3.903 7.284-7.12a3.496 3.496 0 0 0-1.643-2.331 8.158 8.158 0 0 0-4.51-.99 17.995 17.995 0 0 0-3.951.384c-8.45 1.83-11.2 8.822-10.42 12.913.712 3.683 4.593 5.618 9.15 5.606a12.564 12.564 0 0 0 9.953-4.895.492.492 0 0 0 0-.478c-.292-.408-.758-.046-1.41.455zM15.25 5.472a1.597 1.597 0 0 1 .746 1.317v.338c0 2.482-2.412 3.881-4.405 4.79a11.52 11.52 0 0 1-2.587.746c.42-3.66 2.179-6.655 4.894-7.378a2.092 2.092 0 0 1 1.352.187z" fill="none" stroke="#0467c6" stroke-miterlimit="10"/></svg>