<?xml version="1.0" encoding="utf-8"?>
<!-- Generator: Adobe Illustrator 24.0.2, SVG Export Plug-In . SVG Version: 6.00 Build 0)  -->
<svg version="1.1" id="Layer_1" xmlns="http://www.w3.org/2000/svg" xmlns:xlink="http://www.w3.org/1999/xlink" x="0px" y="0px"
	 viewBox="0 0 24 24" style="enable-background:new 0 0 24 24;" xml:space="preserve">
<style type="text/css">
	.st0{fill:none;stroke:#0467C6;stroke-linejoin:round;}
	.st1{fill:#9BC2E8;stroke:#0467C6;stroke-linejoin:round;}
</style>
<path class="st0" d="M20.6,3.6c0.1,1,1,0.8,1,1.6c0,0.8-1,0.7-1,1.6s1,0.8,1,1.6c0,0.8-1,0.7-1,1.6c0,0.9,1,0.8,1,1.6s-1,0.7-1,1.6
	s1,0.6,1,1.6c0,0.9-1,0.5-1,1.6s1,0.7,1,1.6c0,0.9-1,0.8-1,1.6s0.9,0.6,1,1.6c0.1,0.9-0.9,1.3-1.2,1.5l-0.1,0.1
	c-0.6-0.2-0.5-0.9-1.4-0.9c-0.9,0-0.5,0.9-1.7,0.9s-0.7-0.9-1.7-0.9c-1,0-0.8,0.9-1.6,0.9c-0.9,0-0.9-0.9-1.7-0.9
	c-0.8,0-0.7,0.9-1.6,0.9S9.9,21.4,9,21.4c-0.8,0-0.7,0.9-1.6,0.9s-0.8-0.9-1.7-0.9s-0.6,0.9-1.6,0.9c-0.5,0-1-0.2-1.4-0.4l-0.2-0.1
	c0.3-0.3,0.8-0.4,0.8-1.1c0-0.9-1-0.8-1-1.6s1-0.7,1-1.6c0-0.9-1-0.5-1-1.6s1-0.6,1-1.6c0-0.9-1-0.7-1-1.6s1-0.8,1-1.6s-1-0.7-1-1.6
	c0-0.9,1-0.8,1-1.6c0-0.8-1-0.7-1-1.6s1-0.8,1-1.6c0-0.8-1-0.5-1-1.6c-0.1-0.5,0.1-1,0.4-1.5c0.5,0.2,1.1,0.4,1.6,0.5
	c1,0,0.9-0.9,1.8-0.9s0.8,0.9,1.7,0.9s0.8-0.9,1.7-0.9c0.8,0,0.7,0.9,1.7,0.9c0.9,0,0.9-0.9,1.7-0.9c0.8,0,0.8,0.9,1.7,0.9
	s0.7-0.9,1.7-0.9s0.5,0.9,1.7,0.9s0.9-0.8,1.8-0.9c0,0,0.8-0.2,2.1,0.5C21.6,2.1,20.6,2.8,20.6,3.6z"/>
<path class="st1" d="M18.2,19.1V4.9H5.8v14.1H18.2z"/>
</svg>
