<svg width="21" height="17" viewBox="0 0 21 17" fill="none" xmlns="http://www.w3.org/2000/svg">
<path d="M7.46872 4.44002L6.24818 4.32502C6.04476 4.30502 5.90527 4.13002 5.95758 3.96002C6.32955 2.75502 7.25948 2.15002 8.759 2.15002C9.85748 2.15002 10.6421 2.48502 11.1187 3.15002C11.2756 3.37002 11.3686 3.62502 11.3977 3.88002C11.4325 4.21002 11.386 4.50002 11.2698 4.75502C11.1768 4.95502 11.0548 5.12002 10.9095 5.25002C10.7642 5.38002 10.5259 5.54502 10.1946 5.75502C9.94466 5.91002 9.78192 6.02502 9.71799 6.10002C9.67149 6.14502 9.63662 6.41502 9.61337 6.62502C9.59593 6.77502 9.45063 6.88502 9.27627 6.88502H8.16035C7.96856 6.88502 7.81744 6.75002 7.82325 6.58502C7.83488 6.21002 7.87556 5.74002 7.93368 5.61502C8.00924 5.45002 8.16617 5.28002 8.40446 5.09502C8.759 4.82002 8.98567 4.61502 9.07285 4.48002C9.16003 4.34502 9.20652 4.19002 9.20652 4.01002C9.20652 3.82002 9.1484 3.68002 9.03216 3.57502C8.91592 3.47502 8.77062 3.42002 8.59626 3.42002C8.16035 3.42002 7.91043 3.67002 7.84069 4.17502C7.81744 4.34002 7.6547 4.45502 7.46872 4.44002Z" fill="#3D7CC9"/>
<path d="M8.68332 9.67001C8.02075 9.67001 7.48022 9.20501 7.48022 8.63501C7.48022 8.06501 8.02075 7.60001 8.68332 7.60001C9.3459 7.60001 9.88642 8.06501 9.88642 8.63501C9.88642 9.20501 9.3459 9.67001 8.68332 9.67001Z" fill="#3D7CC9"/>
<path d="M20.226 2.92502H18.2267V10.72C18.2267 11.46 17.5234 12.065 16.6574 12.065H9.82245L8.55542 12.785V13.375C8.55542 13.71 8.87508 13.98 9.26449 13.98H14.2396L17.7734 16L17.814 16.02C17.9128 16.065 18.0175 16.085 18.1279 16.085C18.2499 16.085 18.372 16.055 18.4824 16C18.6859 15.895 18.8079 15.71 18.8079 15.505V13.985H20.2319C20.6213 13.985 20.9409 13.715 20.9409 13.38V3.53002C20.9351 3.19502 20.6155 2.92502 20.226 2.92502Z" fill="#DCE3EB"/>
<path d="M16.4076 0.450012H0.959085C0.436 0.450012 0.0117188 0.815012 0.0117188 1.26001L0.0233429 8.37001C0.0233429 8.62001 0.255825 8.82001 0.546429 8.82001C0.837032 8.82001 1.06951 8.62001 1.06951 8.37001L1.05789 1.35001H16.3088V10.415H9.37496C9.21222 10.415 9.04367 10.45 8.89837 10.515L4.05692 13.27V11.2C4.05692 10.77 3.64426 10.42 3.13861 10.42L0.714979 10.43C0.424375 10.43 0.191893 10.63 0.191893 10.88C0.191893 11.13 0.424375 11.33 0.714979 11.33H3.00493V13.46C3.00493 13.72 3.12699 13.98 3.37109 14.13C3.53383 14.235 3.71982 14.28 3.91161 14.28C4.0511 14.28 4.19641 14.25 4.33008 14.195L9.37496 11.32H16.3959C16.919 11.32 17.3433 10.955 17.3433 10.51V1.26001C17.3549 0.815012 16.9248 0.450012 16.4076 0.450012Z" fill="#004A98"/>
</svg>
